<?xml version="1.0" encoding="UTF-8" standalone="no"?>
<svg
   xmlns:dc="http://purl.org/dc/elements/1.1/"
   xmlns:cc="http://creativecommons.org/ns#"
   xmlns:rdf="http://www.w3.org/1999/02/22-rdf-syntax-ns#"
   xmlns:svg="http://www.w3.org/2000/svg"
   xmlns="http://www.w3.org/2000/svg"
   xmlns:sodipodi="http://sodipodi.sourceforge.net/DTD/sodipodi-0.dtd"
   xmlns:inkscape="http://www.inkscape.org/namespaces/inkscape"
   version="1.1"
   id="svg2"
   xml:space="preserve"
   width="666.66669"
   height="666.66669"
   viewBox="0 0 666.66669 666.66669"
   sodipodi:docname="donation.svg"
   inkscape:version="1.0.1 (3bc2e813f5, 2020-09-07)"><metadata
     id="metadata8"><rdf:RDF><cc:Work
         rdf:about=""><dc:format>image/svg+xml</dc:format><dc:type
           rdf:resource="http://purl.org/dc/dcmitype/StillImage" /><dc:title /></cc:Work></rdf:RDF></metadata><defs
     id="defs6"><clipPath
       clipPathUnits="userSpaceOnUse"
       id="clipPath20"><path
         d="M 0,0 H 500 V 500 H 0 Z"
         id="path18" /></clipPath><clipPath
       clipPathUnits="userSpaceOnUse"
       id="clipPath32"><path
         d="m 258.082,388.906 h 45.254 v -39.791 h -45.254 z"
         id="path30" /></clipPath><clipPath
       clipPathUnits="userSpaceOnUse"
       id="clipPath206"><path
         d="M 45.616,101.846 H 454.384 V 17.3625 H 45.616 Z"
         id="path204" /></clipPath><clipPath
       clipPathUnits="userSpaceOnUse"
       id="clipPath298"><path
         d="M 250.038,209.993 H 395.913 V 143.238 H 250.038 Z"
         id="path296" /></clipPath><clipPath
       clipPathUnits="userSpaceOnUse"
       id="clipPath318"><path
         d="M 104.201,209.996 H 250.018 V 145.725 H 104.201 Z"
         id="path316" /></clipPath><clipPath
       clipPathUnits="userSpaceOnUse"
       id="clipPath438"><path
         d="M 0,0 H 500 V 500 H 0 Z"
         id="path436" /></clipPath></defs><sodipodi:namedview
     pagecolor="#ffffff"
     bordercolor="#666666"
     borderopacity="1"
     objecttolerance="10"
     gridtolerance="10"
     guidetolerance="10"
     inkscape:pageopacity="0"
     inkscape:pageshadow="2"
     inkscape:window-width="1920"
     inkscape:window-height="1017"
     id="namedview4"
     showgrid="false"
     inkscape:zoom="0.41774999"
     inkscape:cx="795.41699"
     inkscape:cy="368.87189"
     inkscape:window-x="-8"
     inkscape:window-y="-8"
     inkscape:window-maximized="1"
     inkscape:current-layer="g10"
     inkscape:document-rotation="0" /><g
     id="g10"
     inkscape:groupmode="layer"
     inkscape:label="4185227"
     transform="matrix(1.3333333,0,0,-1.3333333,0,666.66667)"><path
       d="m 56.2075,458.7832 c -5.939,-3.517 -6.681,-9.759 -6.681,-9.759 0,0 -5.829,2.351 -11.769,-1.166 -5.939,-3.517 -9.527,-14.176 0.654,-22.143 10.179,-7.968 28.027,-5.25 28.027,-5.25 0,0 10.964,14.344 8.872,27.101 -2.093,12.756 -13.164,14.734 -19.103,11.217"
       style="fill:#a8ebf6;fill-opacity:1;fill-rule:nonzero;stroke:none"
       id="path24" /><path
       d="m 455.6709,456.3374 c -8.259,1.732 -14.081,-3.284 -14.081,-3.284 0,0 -3.315,6.932 -11.574,8.665 -8.259,1.732 -20.294,-4.917 -17.693,-20.505 2.601,-15.588 20.938,-27.873 20.938,-27.873 0,0 21.727,3.882 30.372,17.112 8.645,13.229 0.297,24.153 -7.962,25.885"
       style="fill:#a8ebf6;fill-opacity:1;fill-rule:nonzero;stroke:none"
       id="path44" /><g
       clip-path="url(#clipPath32)"
       opacity="0.690002"
       id="g38"><g
         transform="translate(293.835,384.2856)"
         id="g36"><path
           d="m 0,0 c -6.756,1.417 -11.518,-2.687 -11.518,-2.687 0,0 -2.712,5.671 -9.467,7.088 -6.756,1.417 -16.6,-4.021 -14.472,-16.772 2.127,-12.751 17.126,-22.799 17.126,-22.799 0,0 17.772,3.175 24.844,13.996 C 13.585,-10.352 6.755,-1.417 0,0"
           style="fill:#ffffff;fill-opacity:1;fill-rule:nonzero;stroke:none"
           id="path34" /></g></g><path
       d="m 149.0303,480.1855 c -3.317,0.695 -5.655,-1.319 -5.655,-1.319 0,0 -1.332,2.784 -4.649,3.48 -3.317,0.695 -8.151,-1.974 -7.106,-8.236 1.045,-6.26 8.41,-11.195 8.41,-11.195 0,0 8.726,1.56 12.198,6.873 3.472,5.314 0.119,9.701 -3.198,10.397"
       style="fill:#a8ebf6;fill-opacity:1;fill-rule:nonzero;stroke:none"
       id="path48" /><path
       d="m 467.2959,351.5562 c -3.317,0.696 -5.655,-1.319 -5.655,-1.319 0,0 -1.332,2.784 -4.65,3.48 -3.316,0.696 -8.15,-1.974 -7.105,-8.235 1.045,-6.261 8.409,-11.196 8.409,-11.196 0,0 8.727,1.56 12.199,6.874 3.472,5.313 0.118,9.7 -3.198,10.396"
       style="fill:#a8ebf6;fill-opacity:1;fill-rule:nonzero;stroke:none"
       id="path52" /><path
       d="m 321.4619,220.874 c 1.385,0.767 68.576,-10.004 73.414,1.421 4.837,11.424 -5.713,17.951 -5.713,17.951 0,0 37.989,1.119 37.236,10.655 -0.754,9.537 -5.826,12.16 -5.826,12.16 0,0 25.741,3.085 27.035,11.645 1.296,8.559 -13.563,13.606 -13.563,13.606 0,0 32.918,3.742 24.22,14.009 -8.699,10.266 -46.603,-1.362 -47.369,0.024 -0.767,1.385 6.562,32.287 -9.143,20.88 -15.706,-11.408 -23.421,-27.441 -23.421,-27.441 0,0 1.16,20.248 -10.954,10.527 -12.114,-9.721 -18.507,-31.96 -18.507,-31.96 0,0 -0.592,14.15 -11.065,4.734 -10.473,-9.416 -16.344,-58.211 -16.344,-58.211"
       style="fill:#3de8b5;fill-opacity:1;fill-rule:nonzero;stroke:none"
       id="path56" /><path
       d="m 301.624,200.375 c 0.104,0.143 7.695,10.504 20.869,24.516 8.035,13.284 13.002,42.45 13.051,42.743 0.112,0.666 0.742,1.116 1.408,1.004 0.668,-0.106 1.115,-0.743 1.003,-1.409 -0.173,-1.033 -3.721,-21.86 -9.849,-36.505 3.602,3.659 7.52,7.483 11.739,11.38 2.765,2.554 5.734,5.207 8.888,7.911 9.671,17.635 13.71,43.339 13.75,43.598 0.103,0.667 0.727,1.125 1.395,1.022 0.672,-0.1 1.125,-0.726 1.022,-1.394 -0.037,-0.238 -3.421,-21.799 -11.441,-39.254 2.712,2.234 5.549,4.488 8.492,6.74 0.108,0.122 0.237,0.221 0.387,0.294 6.175,4.707 12.836,9.395 19.918,13.851 9.756,20.804 12.154,34.93 12.178,35.071 0.109,0.666 0.738,1.117 1.404,1.008 0.666,-0.107 1.118,-0.738 1.009,-1.404 -0.091,-0.555 -2.216,-13.108 -10.841,-32.363 1.797,1.086 3.617,2.156 5.463,3.205 0.152,0.153 0.345,0.263 0.566,0.319 13.624,7.691 28.543,14.279 44.343,18.42 0.653,0.171 1.321,-0.219 1.493,-0.872 0.171,-0.653 -0.22,-1.322 -0.873,-1.493 -13.703,-3.592 -26.748,-9.052 -38.848,-15.484 17.192,0.675 31.443,-6.149 32.107,-6.472 0.607,-0.296 0.859,-1.028 0.563,-1.635 -0.296,-0.607 -1.027,-0.856 -1.634,-0.563 -0.172,0.085 -17.455,8.366 -36.337,5.752 -9.177,-5.205 -17.757,-10.913 -25.607,-16.715 19.766,1.406 39.669,-7.657 40.57,-8.074 0.612,-0.283 0.878,-1.009 0.596,-1.622 -0.284,-0.613 -1.013,-0.883 -1.623,-0.597 -0.229,0.106 -23.062,10.499 -43.373,7.413 -8.226,-6.295 -15.577,-12.613 -21.869,-18.422 -0.867,-0.801 -1.718,-1.598 -2.56,-2.392 18.41,3.308 36.383,-3.516 37.196,-3.833 0.63,-0.244 0.942,-0.952 0.698,-1.581 -0.243,-0.63 -0.949,-0.936 -1.581,-0.699 -0.207,0.081 -20.77,7.882 -39.715,2.859 -19.94,-19.334 -31.852,-35.585 -31.98,-35.761 -0.311,-0.428 -0.847,-0.594 -1.327,-0.457 -0.133,0.039 -0.262,0.101 -0.381,0.188 -0.546,0.397 -0.666,1.161 -0.269,1.707"
       style="fill:#a8ebf6;fill-opacity:1;fill-rule:nonzero;stroke:none"
       id="path60" /><path
       d="m 321.0371,310.5044 c 0,0 10.803,12.55 23.354,8.42 12.55,-4.13 7.466,-13.345 -2.225,-13.821 -9.691,-0.477 -21.129,5.401 -21.129,5.401"
       style="fill:#3de8b5;fill-opacity:1;fill-rule:nonzero;stroke:none"
       id="path64" /><path
       d="m 333.4287,330.3628 c 0.317,0.635 5.561,5.56 14.934,7.785 9.373,2.224 19.064,-1.431 17.475,-7.15 -1.589,-5.719 -5.401,-6.513 -11.915,-6.196 -6.514,0.318 -20.494,5.561 -20.494,5.561"
       style="fill:#3de8b5;fill-opacity:1;fill-rule:nonzero;stroke:none"
       id="path68" /><path
       d="m 349.1562,348.4736 c 0,0 6.832,6.037 17.476,6.672 10.644,0.636 12.55,-8.737 6.831,-11.12 -5.719,-2.384 -24.307,4.448 -24.307,4.448"
       style="fill:#3de8b5;fill-opacity:1;fill-rule:nonzero;stroke:none"
       id="path72" /><path
       d="m 353.4463,354.1929 c 0,0 15.092,2.065 22.4,7.467 7.308,5.401 2.701,17.793 -7.785,12.709 -10.485,-5.084 -14.615,-20.176 -14.615,-20.176"
       style="fill:#3de8b5;fill-opacity:1;fill-rule:nonzero;stroke:none"
       id="path76" /><path
       d="m 340.5781,346.8848 c 0,0 4.448,5.243 6.037,12.709 1.588,7.467 -1.748,16.84 -8.262,14.934 -6.513,-1.906 -3.971,-10.962 -1.906,-17.316 2.066,-6.355 4.131,-10.327 4.131,-10.327"
       style="fill:#3de8b5;fill-opacity:1;fill-rule:nonzero;stroke:none"
       id="path80" /><path
       d="m 324.2148,326.2324 c 0,0 7.467,9.85 7.943,19.381 0.477,9.533 -4.607,21.289 -13.186,16.046 -8.579,-5.242 5.243,-35.427 5.243,-35.427"
       style="fill:#3de8b5;fill-opacity:1;fill-rule:nonzero;stroke:none"
       id="path84" /><path
       d="m 311.9814,306.5327 c 0,0 6.673,10.803 5.72,20.812 -0.953,10.008 -8.262,16.521 -14.14,13.027 -5.878,-3.495 1.43,-30.503 8.42,-33.839"
       style="fill:#3de8b5;fill-opacity:1;fill-rule:nonzero;stroke:none"
       id="path88" /><path
       d="m 301.1396,278.9932 c 0.04,0.11 2.999,8.155 8.865,19.57 2.704,10.001 0.513,29.623 0.49,29.82 -0.05,0.448 0.271,0.852 0.718,0.903 0.448,0.056 0.853,-0.27 0.904,-0.718 0.079,-0.695 1.643,-14.706 0.413,-25.229 1.635,3.011 3.443,6.186 5.43,9.463 1.303,2.148 2.718,4.396 4.242,6.712 2.952,13.094 0.804,30.324 0.782,30.497 -0.057,0.447 0.259,0.856 0.706,0.913 0.449,0.059 0.855,-0.259 0.912,-0.706 0.02,-0.16 1.825,-14.611 -0.101,-27.285 1.327,1.933 2.732,3.901 4.204,5.888 0.046,0.098 0.112,0.186 0.194,0.26 3.093,4.158 6.501,8.392 10.221,12.556 2.421,15.141 1.356,24.643 1.344,24.737 -0.052,0.448 0.268,0.853 0.716,0.906 0.446,0.054 0.853,-0.267 0.905,-0.715 0.044,-0.373 0.995,-8.815 -0.986,-22.755 0.952,1.028 1.922,2.05 2.912,3.063 0.07,0.126 0.174,0.233 0.305,0.309 7.32,7.445 15.674,14.42 25.044,19.989 0.387,0.23 0.887,0.103 1.118,-0.284 0.23,-0.388 0.103,-0.888 -0.284,-1.119 -8.127,-4.83 -15.487,-10.736 -22.061,-17.092 10.902,3.602 21.299,1.853 21.784,1.768 0.445,-0.078 0.742,-0.501 0.663,-0.945 -0.078,-0.443 -0.501,-0.738 -0.944,-0.662 -0.127,0.022 -12.737,2.147 -24.365,-3.01 -4.927,-5.03 -9.377,-10.273 -13.342,-15.44 12.417,4.544 26.854,2.401 27.508,2.3 0.445,-0.069 0.75,-0.485 0.682,-0.93 -0.07,-0.446 -0.488,-0.753 -0.931,-0.682 -0.167,0.025 -16.727,2.481 -29.185,-3.242 -4.115,-5.554 -7.665,-10.961 -10.629,-15.847 -0.409,-0.673 -0.807,-1.341 -1.201,-2.005 11.197,5.515 23.983,4.451 24.563,4.398 0.448,-0.04 0.779,-0.437 0.739,-0.886 -0.04,-0.448 -0.437,-0.775 -0.886,-0.739 -0.147,0.014 -14.773,1.226 -25.999,-5.488 -9.224,-16.076 -13.867,-28.694 -13.917,-28.832 -0.121,-0.331 -0.433,-0.536 -0.766,-0.536 -0.093,0 -0.188,0.015 -0.28,0.049 -0.424,0.155 -0.641,0.623 -0.487,1.046"
       style="fill:#40d48a;fill-opacity:1;fill-rule:nonzero;stroke:none"
       id="path92" /><path
       d="m 355.0889,218.9062 c 0,0 22.72,4.29 32.82,-11.147 10.102,-15.438 -3.471,-21.068 -14.463,-13.149 -10.992,7.919 -18.357,24.296 -18.357,24.296"
       style="fill:#a8ebf6;fill-opacity:1;fill-rule:nonzero;stroke:none"
       id="path96" /><path
       d="m 385.9062,229.7891 c 0.9,0.417 10.911,1.227 23.078,-4.509 12.167,-5.735 19.563,-18.162 12.848,-23.02 -6.715,-4.86 -11.568,-2.406 -18.401,3.613 -6.832,6.02 -17.525,23.916 -17.525,23.916"
       style="fill:#a8ebf6;fill-opacity:1;fill-rule:nonzero;stroke:none"
       id="path100" /><path
       d="m 418.8437,235.8594 c 0,0 12.714,0.64 24.884,-7.937 12.171,-8.575 6.089,-20.465 -2.229,-18.085 -8.316,2.379 -22.655,26.022 -22.655,26.022"
       style="fill:#a8ebf6;fill-opacity:1;fill-rule:nonzero;stroke:none"
       id="path104" /><path
       d="m 428.5059,238.3662 c 0,0 18.271,-10.89 30.951,-11.358 12.68,-0.469 18.443,17.068 2.571,20.65 -15.871,3.583 -33.522,-9.292 -33.522,-9.292"
       style="fill:#a8ebf6;fill-opacity:1;fill-rule:nonzero;stroke:none"
       id="path108" /><path
       d="m 408.0977,241.5957 c 0,0 9.42,1.849 17.656,8.614 8.237,6.766 12.758,19.902 3.989,23.493 -8.769,3.592 -13.881,-8.505 -17.161,-17.239 -3.28,-8.734 -4.484,-14.868 -4.484,-14.868"
       style="fill:#a8ebf6;fill-opacity:1;fill-rule:nonzero;stroke:none"
       id="path112" /><path
       d="m 372.2529,233.3047 c 0,0 16.727,4.248 25.548,14.236 8.821,9.989 13.511,27.247 -0.418,28.996 -13.929,1.749 -25.13,-43.232 -25.13,-43.232"
       style="fill:#a8ebf6;fill-opacity:1;fill-rule:nonzero;stroke:none"
       id="path116" /><path
       d="m 341.7461,222.457 c 0,0 16.69,5.98 24.366,17.733 7.676,11.755 5.372,25.228 -4.088,26.532 -9.459,1.304 -25.002,-34.536 -20.278,-44.265"
       style="fill:#a8ebf6;fill-opacity:1;fill-rule:nonzero;stroke:none"
       id="path120" /><path
       d="m 305.9307,201.8418 c 0.14,0.085 10.375,6.288 26.719,13.639 11.66,8.56 26.355,31.884 26.503,32.12 0.334,0.533 1.037,0.694 1.57,0.36 0.536,-0.329 0.694,-1.038 0.36,-1.57 -0.518,-0.827 -11.013,-17.483 -21.52,-27.896 4.407,1.862 9.145,3.752 14.168,5.599 3.293,1.21 6.795,2.432 10.476,3.632 14.623,11.72 27.284,32.396 27.411,32.604 0.327,0.538 1.027,0.709 1.564,0.382 0.543,-0.327 0.709,-1.027 0.382,-1.565 -0.116,-0.192 -10.733,-17.536 -23.871,-29.692 3.132,0.953 6.379,1.879 9.716,2.766 0.135,0.066 0.283,0.105 0.438,0.114 6.995,1.845 14.402,3.499 22.09,4.803 15.828,14.417 22.939,25.716 23.01,25.829 0.332,0.534 1.034,0.697 1.568,0.365 0.536,-0.329 0.698,-1.034 0.366,-1.568 -0.276,-0.446 -6.59,-10.488 -20.892,-23.977 1.934,0.293 3.882,0.564 5.846,0.807 0.186,0.077 0.392,0.102 0.601,0.071 14.473,1.751 29.665,2.09 44.741,0.008 0.623,-0.087 1.059,-0.661 0.974,-1.284 -0.087,-0.624 -0.662,-1.059 -1.285,-0.973 -13.077,1.805 -26.252,1.768 -38.963,0.556 15.035,-5.562 24.86,-16.526 25.317,-17.041 0.416,-0.472 0.371,-1.192 -0.1,-1.609 -0.471,-0.416 -1.19,-0.369 -1.608,0.1 -0.118,0.135 -12.031,13.436 -29.214,17.934 -9.757,-1.201 -19.179,-3.047 -28.008,-5.235 17.511,-5.852 31.401,-20.763 32.027,-21.443 0.426,-0.463 0.396,-1.184 -0.067,-1.609 -0.463,-0.426 -1.187,-0.399 -1.609,0.065 -0.159,0.174 -16.095,17.275 -34.676,21.878 -9.329,-2.479 -17.911,-5.288 -25.401,-8.039 -1.032,-0.38 -2.049,-0.761 -3.057,-1.144 17.024,-3.731 30.052,-16.027 30.638,-16.589 0.455,-0.435 0.471,-1.156 0.036,-1.61 -0.435,-0.455 -1.152,-0.467 -1.61,-0.037 -0.15,0.144 -15.057,14.204 -33.155,16.652 -24.068,-9.513 -40.124,-19.242 -40.298,-19.348 -0.42,-0.256 -0.941,-0.208 -1.304,0.082 -0.102,0.081 -0.191,0.18 -0.262,0.298 -0.328,0.537 -0.158,1.237 0.379,1.565"
       style="fill:#3de8b5;fill-opacity:1;fill-rule:nonzero;stroke:none"
       id="path124" /><path
       d="m 181.9785,286.0205 c 0,0 -1.411,6.112 -15.045,9.56 -13.634,3.447 -26.798,-6.739 -26.798,-6.739 0,0 12.694,-9.717 25.388,-10.97 12.694,-1.254 16.455,8.149 16.455,8.149"
       style="fill:#3de8b5;fill-opacity:1;fill-rule:nonzero;stroke:none"
       id="path128" /><path
       d="m 164.8965,313.2891 c 0,0 -9.089,8.462 -20.06,11.283 -10.97,2.821 -27.895,-10.656 -27.895,-10.656 0,0 13.634,-7.209 28.679,-7.523 15.045,-0.313 19.276,6.896 19.276,6.896"
       style="fill:#3de8b5;fill-opacity:1;fill-rule:nonzero;stroke:none"
       id="path132" /><path
       d="m 141.3892,339.147 c 0,0 -6.269,6.425 -17.396,8.933 -11.126,2.507 -19.746,-10.343 -19.746,-10.343 0,0 11.284,-4.388 23.508,-4.075 12.223,0.314 13.634,5.485 13.634,5.485"
       style="fill:#3de8b5;fill-opacity:1;fill-rule:nonzero;stroke:none"
       id="path136" /><path
       d="m 138.2549,345.4155 c 0,0 -0.313,11.44 -8.62,19.276 -8.305,7.836 -33.067,5.955 -32.596,5.485 0.47,-0.47 10.186,-14.888 22.567,-19.589 12.38,-4.702 18.649,-5.172 18.649,-5.172"
       style="fill:#3de8b5;fill-opacity:1;fill-rule:nonzero;stroke:none"
       id="path140" /><path
       d="m 152.9863,335.3857 c 0,0 -6.583,5.485 -7.679,15.515 -1.097,10.03 9.873,26.328 9.873,26.328 0,0 4.388,-10.813 4.075,-25.545 -0.314,-14.731 -6.269,-16.298 -6.269,-16.298"
       style="fill:#3de8b5;fill-opacity:1;fill-rule:nonzero;stroke:none"
       id="path144" /><path
       d="m 175.8667,306.8638 c 0,0 -6.112,5.798 -7.522,21.313 -1.411,15.515 11.283,26.015 11.283,26.015 0,0 7.209,-12.381 6.582,-27.112 -0.627,-14.731 -10.343,-20.216 -10.343,-20.216"
       style="fill:#3de8b5;fill-opacity:1;fill-rule:nonzero;stroke:none"
       id="path148" /><path
       d="m 193.1055,279.4385 c 0,0 -5.172,5.171 -6.112,16.769 -0.94,11.596 8.933,28.052 8.933,28.052 0,0 6.582,-10.657 6.739,-25.702 0.156,-15.044 -9.56,-19.119 -9.56,-19.119"
       style="fill:#3de8b5;fill-opacity:1;fill-rule:nonzero;stroke:none"
       id="path152" /><path
       d="m 207.8579,242.9043 c -0.056,0.153 -4.172,11.346 -12.333,27.227 -3.762,13.914 -0.713,41.211 -0.682,41.486 0.071,0.623 -0.376,1.185 -0.999,1.256 -0.623,0.077 -1.186,-0.376 -1.257,-0.999 -0.11,-0.966 -2.286,-20.46 -0.574,-35.099 -2.276,4.189 -4.791,8.606 -7.555,13.165 -1.813,2.988 -3.782,6.116 -5.903,9.339 -4.106,18.215 -1.117,42.186 -1.086,42.427 0.079,0.622 -0.36,1.19 -0.982,1.27 -0.626,0.082 -1.191,-0.36 -1.27,-0.982 -0.028,-0.222 -2.539,-20.328 0.141,-37.96 -1.847,2.689 -3.8,5.428 -5.849,8.192 -0.064,0.136 -0.155,0.259 -0.27,0.362 -4.301,5.784 -9.043,11.674 -14.219,17.467 -3.369,21.065 -1.887,34.284 -1.871,34.416 0.073,0.622 -0.372,1.186 -0.995,1.26 -0.622,0.075 -1.186,-0.372 -1.26,-0.994 -0.061,-0.52 -1.385,-12.264 1.373,-31.657 -1.325,1.429 -2.675,2.851 -4.053,4.261 -0.096,0.175 -0.24,0.323 -0.423,0.429 -10.183,10.358 -21.806,20.061 -34.842,27.809 -0.539,0.32 -1.235,0.143 -1.555,-0.395 -0.321,-0.539 -0.143,-1.236 0.395,-1.556 11.307,-6.72 21.546,-14.937 30.692,-23.78 -15.166,5.012 -29.632,2.578 -30.308,2.46 -0.617,-0.108 -1.03,-0.696 -0.921,-1.314 0.108,-0.617 0.697,-1.027 1.314,-0.922 0.175,0.032 17.719,2.988 33.897,-4.187 6.853,-6.998 13.045,-14.292 18.561,-21.481 -17.275,6.323 -37.359,3.341 -38.269,3.201 -0.619,-0.096 -1.044,-0.676 -0.949,-1.295 0.096,-0.619 0.677,-1.048 1.295,-0.949 0.232,0.036 23.27,3.453 40.602,-4.509 5.726,-7.727 10.664,-15.25 14.788,-22.047 0.568,-0.937 1.123,-1.866 1.67,-2.79 -15.577,7.673 -33.365,6.193 -34.171,6.119 -0.625,-0.056 -1.085,-0.607 -1.029,-1.231 0.056,-0.625 0.607,-1.08 1.231,-1.03 0.206,0.019 20.554,1.707 36.171,-7.634 12.833,-22.366 19.293,-39.92 19.363,-40.111 0.167,-0.461 0.603,-0.747 1.066,-0.747 0.129,0 0.26,0.022 0.389,0.069 0.589,0.215 0.892,0.865 0.677,1.454"
       style="fill:#a8ebf6;fill-opacity:1;fill-rule:nonzero;stroke:none"
       id="path156" /><path
       d="m 168.0142,220.5537 c -2.568,2.635 -30.686,-0.194 -53.152,8.882 -22.466,9.076 -29.443,23.845 -39.28,30.059 -9.837,6.214 -15.569,10.952 -20.856,23.587 -5.287,12.636 -27.84,30.207 -24.987,30.612 2.852,0.405 23.694,-1.336 43.599,0.372 19.905,1.708 32.182,-9.398 39.485,-10.375 7.302,-0.978 19.837,-3.495 26.162,-11.775 6.324,-8.28 8.233,-12.576 16.908,-21.328 8.675,-8.752 12.121,-50.034 12.121,-50.034"
       style="fill:#40d48a;fill-opacity:1;fill-rule:nonzero;stroke:none"
       id="path160" /><path
       d="m 179.5972,208.8242 c -0.091,0.129 -6.771,9.527 -18.414,22.275 -7.039,12.028 -11.118,38.27 -11.159,38.535 -0.092,0.599 -0.651,1.01 -1.25,0.919 -0.601,-0.086 -1.011,-0.653 -0.919,-1.251 0.142,-0.93 3.056,-19.67 8.367,-32.895 -3.186,3.331 -6.653,6.814 -10.389,10.367 -2.449,2.328 -5.079,4.747 -7.876,7.217 -8.451,15.954 -11.743,39.077 -11.775,39.31 -0.084,0.6 -0.638,1.019 -1.238,0.935 -0.605,-0.081 -1.02,-0.638 -0.936,-1.238 0.03,-0.214 2.788,-19.611 9.76,-35.382 -2.405,2.041 -4.923,4.101 -7.535,6.16 -0.094,0.111 -0.21,0.202 -0.344,0.269 -5.48,4.305 -11.398,8.599 -17.698,12.691 -8.486,18.799 -10.455,31.509 -10.474,31.636 -0.09,0.599 -0.649,1.013 -1.248,0.923 -0.6,-0.087 -1.013,-0.647 -0.924,-1.247 0.075,-0.499 1.819,-11.793 9.311,-29.188 -1.599,0.998 -3.218,1.982 -4.862,2.947 -0.135,0.139 -0.307,0.241 -0.504,0.293 -12.129,7.081 -25.434,13.187 -39.562,17.11 -0.584,0.161 -1.188,-0.18 -1.351,-0.764 -0.162,-0.584 0.18,-1.189 0.764,-1.351 12.253,-3.402 23.891,-8.472 34.668,-14.402 -15.422,0.829 -28.302,-5.112 -28.902,-5.393 -0.549,-0.257 -0.785,-0.912 -0.527,-1.46 0.258,-0.548 0.911,-0.781 1.46,-0.527 0.156,0.074 15.775,7.283 32.689,4.692 8.17,-4.791 15.797,-10.026 22.766,-15.334 -17.722,1.517 -35.704,-6.359 -36.517,-6.722 -0.554,-0.246 -0.803,-0.894 -0.557,-1.448 0.246,-0.553 0.898,-0.805 1.449,-0.557 0.207,0.092 20.836,9.124 39.026,6.091 7.303,-5.757 13.818,-11.523 19.39,-16.818 0.768,-0.731 1.521,-1.456 2.266,-2.18 -16.48,3.207 -32.702,-2.686 -33.435,-2.958 -0.568,-0.211 -0.858,-0.843 -0.647,-1.41 0.21,-0.57 0.84,-0.854 1.41,-0.649 0.187,0.071 18.744,6.806 35.684,2.052 17.647,-17.612 28.127,-32.353 28.241,-32.514 0.273,-0.387 0.751,-0.544 1.184,-0.426 0.12,0.033 0.237,0.087 0.345,0.163 0.495,0.349 0.613,1.034 0.263,1.529"
       style="fill:#3de8b5;fill-opacity:1;fill-rule:nonzero;stroke:none"
       id="path164" /><path
       d="m 131.0674,217.5859 c 0,0 -20.949,3.956 -30.263,-10.278 -9.314,-14.235 3.201,-19.426 13.337,-12.124 10.135,7.301 16.926,22.402 16.926,22.402"
       style="fill:#a8ebf6;fill-opacity:1;fill-rule:nonzero;stroke:none"
       id="path168" /><path
       d="m 102.6514,227.6201 c -0.83,0.385 -10.061,1.132 -21.279,-4.156 -11.219,-5.288 -18.037,-16.747 -11.846,-21.228 6.19,-4.479 10.666,-2.218 16.965,3.333 6.3,5.55 16.16,22.051 16.16,22.051"
       style="fill:#a8ebf6;fill-opacity:1;fill-rule:nonzero;stroke:none"
       id="path172" /><path
       d="m 72.2808,233.2178 c 0,0 -11.722,0.59 -22.944,-7.317 -11.223,-7.908 -5.615,-18.871 2.055,-16.677 7.669,2.194 20.889,23.994 20.889,23.994"
       style="fill:#a8ebf6;fill-opacity:1;fill-rule:nonzero;stroke:none"
       id="path176" /><path
       d="m 63.3721,235.5293 c 0,0 -16.847,-10.041 -28.539,-10.473 -11.691,-0.432 -17.005,15.738 -2.371,19.041 14.634,3.303 30.91,-8.568 30.91,-8.568"
       style="fill:#a8ebf6;fill-opacity:1;fill-rule:nonzero;stroke:none"
       id="path180" /><path
       d="m 82.1899,238.5078 c 0,0 -8.686,1.704 -16.281,7.942 -7.594,6.239 -11.763,18.35 -3.677,21.662 8.086,3.312 12.799,-7.842 15.823,-15.896 3.024,-8.053 4.135,-13.708 4.135,-13.708"
       style="fill:#a8ebf6;fill-opacity:1;fill-rule:nonzero;stroke:none"
       id="path184" /><path
       d="m 115.2407,230.8623 c 0,0 -15.423,3.917 -23.557,13.127 -8.133,9.21 -12.457,25.123 0.386,26.736 12.843,1.612 23.171,-39.863 23.171,-39.863"
       style="fill:#a8ebf6;fill-opacity:1;fill-rule:nonzero;stroke:none"
       id="path188" /><path
       d="m 143.3696,220.8604 c 0,0 -15.389,5.514 -22.467,16.352 -7.077,10.837 -4.953,23.26 3.769,24.463 8.722,1.203 23.054,-31.845 18.698,-40.815"
       style="fill:#a8ebf6;fill-opacity:1;fill-rule:nonzero;stroke:none"
       id="path192" /><path
       d="m 176.394,201.8516 c -0.128,0.078 -9.566,5.799 -24.636,12.576 -10.752,7.894 -24.302,29.4 -24.438,29.616 -0.308,0.492 -0.956,0.641 -1.447,0.332 -0.496,-0.303 -0.641,-0.956 -0.333,-1.448 0.479,-0.762 10.155,-16.119 19.843,-25.721 -4.064,1.717 -8.432,3.46 -13.064,5.163 -3.035,1.116 -6.265,2.242 -9.659,3.348 -13.484,10.808 -25.157,29.872 -25.274,30.064 -0.302,0.495 -0.948,0.653 -1.443,0.352 -0.501,-0.302 -0.653,-0.948 -0.352,-1.443 0.108,-0.177 9.896,-16.17 22.011,-27.378 -2.888,0.879 -5.882,1.733 -8.959,2.55 -0.125,0.061 -0.261,0.097 -0.404,0.106 -6.45,1.7 -13.28,3.226 -20.368,4.428 -14.595,13.294 -21.152,23.711 -21.216,23.816 -0.307,0.492 -0.954,0.643 -1.447,0.337 -0.494,-0.304 -0.644,-0.954 -0.338,-1.447 0.255,-0.41 6.076,-9.67 19.265,-22.106 -1.784,0.269 -3.581,0.518 -5.391,0.743 -0.171,0.07 -0.361,0.094 -0.554,0.066 -13.345,1.614 -27.353,1.926 -41.254,0.007 -0.575,-0.08 -0.976,-0.61 -0.897,-1.185 0.079,-0.575 0.609,-0.976 1.184,-0.897 12.057,1.665 24.206,1.63 35.926,0.514 -13.863,-5.129 -22.922,-15.239 -23.343,-15.714 -0.385,-0.435 -0.343,-1.099 0.091,-1.483 0.435,-0.383 1.098,-0.341 1.483,0.092 0.109,0.124 11.093,12.389 26.937,16.536 8.996,-1.106 17.685,-2.809 25.825,-4.826 -16.146,-5.397 -28.954,-19.145 -29.53,-19.772 -0.393,-0.427 -0.365,-1.091 0.061,-1.485 0.427,-0.392 1.095,-0.367 1.484,0.061 0.147,0.16 14.84,15.928 31.973,20.173 8.601,-2.286 16.515,-4.876 23.421,-7.413 0.952,-0.35 1.89,-0.702 2.819,-1.054 -15.697,-3.442 -27.709,-14.779 -28.25,-15.297 -0.419,-0.4 -0.434,-1.065 -0.033,-1.484 0.401,-0.42 1.062,-0.431 1.485,-0.035 0.137,0.133 13.883,13.098 30.57,15.355 22.192,-8.772 36.997,-17.742 37.158,-17.84 0.387,-0.236 0.867,-0.192 1.202,0.075 0.094,0.074 0.176,0.166 0.242,0.275 0.302,0.495 0.146,1.14 -0.35,1.443"
       style="fill:#3de8b5;fill-opacity:1;fill-rule:nonzero;stroke:none"
       id="path196" /><path
       d="m 209.9937,238.2197 c -9.644,-16.281 -22.935,-26.601 -35.471,-33.146 14.665,-2.751 26.983,-2.122 26.983,-2.122 0,0 28.264,30.22 26.392,59.789 -1.545,24.4 -18.699,33.44 -32.71,32.109 0,0 39.144,-15.545 14.806,-56.63"
       style="fill:#cd2828;fill-opacity:1;fill-rule:nonzero;stroke:none"
       id="path238" /><g
       clip-path="url(#clipPath206)"
       id="g212"><g
         transform="translate(454.3838,59.6045)"
         id="g210"><path
           d="m 0,0 c 0,-23.33 -91.506,-42.242 -204.384,-42.242 -112.878,0 -204.384,18.912 -204.384,42.242 0,23.329 91.506,42.241 204.384,42.241 C -91.506,42.241 0,23.329 0,0"
           style="fill:#cfd2d3;fill-opacity:1;fill-rule:nonzero;stroke:none"
           id="path208" /></g></g><path
       d="m 144.7021,220.3252 c 0,0 -18.839,14.581 -12.474,32.012 6.365,17.431 25.582,15.92 25.582,15.92 0,0 -31.312,-16.574 -13.108,-47.932"
       style="fill:#f85f5f;fill-opacity:1;fill-rule:nonzero;stroke:none"
       id="path242" /><path
       d="m 330.0693,301.9038 c -13.462,6.798 -25.828,0.82 -25.828,0.82 0,0 -2.529,13.5 -15.992,20.299 -13.462,6.798 -37.309,0.866 -40.004,-27.25 -2.696,-28.118 23.304,-57.785 23.304,-57.785 0,0 39.309,-3.313 60.336,15.546 21.028,18.859 11.647,41.571 -1.816,48.37"
       style="fill:#df3b3b;fill-opacity:1;fill-rule:nonzero;stroke:none"
       id="path246" /><path
       d="m 302.9609,252.458 c -17.881,-2.394 -33.453,1.462 -45.753,6.981 6.598,-12.601 14.342,-21.451 14.342,-21.451 0,0 39.308,-3.313 60.336,15.546 17.352,15.563 13.991,33.74 4.722,43.443 0,0 11.475,-38.479 -33.647,-44.519"
       style="fill:#cd2828;fill-opacity:1;fill-rule:nonzero;stroke:none"
       id="path250" /><path
       d="m 186.8823,292.666 c -14.344,-6.671 -17.454,-20.738 -17.454,-20.738 0,0 -12.761,6.686 -27.106,0.015 -14.344,-6.671 -24.949,-30.163 -3.544,-50.648 21.405,-20.484 62.728,-18.343 62.728,-18.343 0,0 28.264,30.22 26.391,59.788 -1.872,29.569 -26.67,36.597 -41.015,29.926"
       style="fill:#df3b3b;fill-opacity:1;fill-rule:nonzero;stroke:none"
       id="path234" /><path
       d="m 251.0166,290.7656 c 0,0 -0.208,22.71 16.597,28.237 16.806,5.528 27.02,-9.749 27.02,-9.749 0,0 -30.892,13.653 -43.617,-18.488"
       style="fill:#f85f5f;fill-opacity:1;fill-rule:nonzero;stroke:none"
       id="path254" /><path
       d="m 239.0107,364.5586 c -10.959,-2.258 -15.388,-11.435 -15.388,-11.435 0,0 -7.695,6.679 -18.654,4.421 -10.959,-2.258 -22.081,-16.704 -10.68,-34.286 11.401,-17.582 40.193,-22.831 40.193,-22.831 0,0 24.371,16.203 27.892,36.86 3.522,20.658 -12.404,29.529 -23.363,27.271"
       style="fill:#df3b3b;fill-opacity:1;fill-rule:nonzero;stroke:none"
       id="path258" /><path
       d="m 246.0615,323.3223 c -9.287,-9.638 -20.114,-14.579 -29.808,-17.044 9.646,-4.28 18.228,-5.851 18.228,-5.851 0,0 24.371,16.203 27.892,36.86 2.907,17.047 -7.43,26.06 -17.291,27.424 0,0 24.415,-17.068 0.979,-41.389"
       style="fill:#cd2828;fill-opacity:1;fill-rule:nonzero;stroke:none"
       id="path262" /><path
       d="m 198.2085,321.6274 c 0,0 -10.595,13.101 -3.378,24.063 7.217,10.963 20.198,6.796 20.198,6.796 0,0 -24.248,-6.313 -16.82,-30.859"
       style="fill:#f85f5f;fill-opacity:1;fill-rule:nonzero;stroke:none"
       id="path266" /><path
       d="m 303.1836,269.7998 c -20.932,3.862 -35.305,-9.143 -35.305,-9.143 0,0 -8.785,17.278 -29.716,21.141 -20.932,3.862 -50.872,-13.64 -43.358,-52.788 7.512,-39.148 54.503,-69.003 54.503,-69.003 0,0 54.55,11.118 75.539,45.007 20.99,33.89 -0.731,60.924 -21.663,64.786"
       style="fill:#fd475e;fill-opacity:1;fill-rule:nonzero;stroke:none"
       id="path270" /><path
       d="m 286.1016,192.0732 c -23.266,-10.341 -45.885,-11.302 -64.735,-8.71 13.94,-14.447 27.941,-23.356 27.941,-23.356 0,0 54.55,11.118 75.539,45.006 17.321,27.967 5.552,51.25 -10.851,60.71 0,0 30.817,-47.555 -27.894,-73.65"
       style="fill:#df3b3b;fill-opacity:1;fill-rule:nonzero;stroke:none"
       id="path274" /><path
       d="m 200.5449,223.3301 c 0,0 -9.299,30.672 11.267,44.83 20.565,14.158 40.463,-2.476 40.463,-2.476 0,0 -47.257,6.225 -51.73,-42.354"
       style="fill:#f98e8e;fill-opacity:1;fill-rule:nonzero;stroke:none"
       id="path278" /><path
       d="m 250.0312,209.9932 v 0.003 h -145.83 V 50.2852 l 145.882,-11.935 145.83,11.933 v 159.71 z"
       style="fill:#f1b959;fill-opacity:1;fill-rule:nonzero;stroke:none"
       id="path282" /><path
       d="m 382.7852,90.341285 -110.011,-3.78 c -2.991,-0.103 -5.493,2.315 -5.515,5.331 l -0.17,23.044005 c -0.022,2.906 2.275,5.272 5.16,5.314 l 109.869,1.609 c 2.937,0.043 5.367,-2.334 5.412,-5.294 l 0.312,-20.871005 c 0.043,-2.883 -2.199,-5.255 -5.057,-5.353"
       style="fill:#ffffff;fill-opacity:1;fill-rule:nonzero;stroke:none"
       id="path286" /><text
       transform="matrix(1.0379642,0.02985473,0.00774328,-0.96320164,0,0)"
       style="font-variant:normal;font-weight:bold;font-stretch:normal;font-size:17.6149px;font-family:'Open Sans';-inkscape-font-specification:OpenSans-Bold;writing-mode:lr-tb;fill:#df3b3b;fill-opacity:1;fill-rule:nonzero;stroke:none;stroke-width:0.908122"
       id="text290"
       x="264.93451"
       y="-93.120583"><tspan
         sodipodi:role="line"
         id="tspan288"
         style="font-style:normal;font-variant:normal;font-weight:bold;font-stretch:normal;font-family:Montserrat;-inkscape-font-specification:'Montserrat Bold';stroke-width:0.908122"
         x="264.93451"
         y="-93.120583">DONATION</tspan></text><path
       d="m 250.083,38.3506 -145.882,11.936 v 159.71 h 145.83 z"
       style="fill:#fedb78;fill-opacity:1;fill-rule:nonzero;stroke:none"
       id="path310" /><g
       clip-path="url(#clipPath298)"
       id="g304"><g
         transform="translate(274.9209,166.2695)"
         id="g302"><path
           d="M 0,0 C 0,0 82.075,-16.914 120.992,-23.031 V 43.724 H -24.883 Z"
           style="fill:#40d48a;fill-opacity:1;fill-rule:nonzero;stroke:none"
           id="path300" /></g></g><g
       clip-path="url(#clipPath318)"
       id="g324"
       style="fill:#eca224;fill-opacity:1"><g
         transform="translate(104.2012,145.7246)"
         id="g322"
         style="fill:#eca224;fill-opacity:1"><path
           d="m 0,0 c 31.425,4.311 123.129,22.393 123.129,22.393 l 22.688,41.878 H 0 Z"
           style="fill:#df3b3b;fill-opacity:1;fill-rule:nonzero;stroke:none"
           id="path320" /></g></g><path
       d="m 250.0269,210.0117 -30.237,-30.187 H 74.8449 l 29.352,30.187 z"
       style="fill:#f1b959;fill-opacity:1;fill-rule:nonzero;stroke:none"
       id="path330" /><path
       d="m 250.0269,210.0117 30.238,-30.187 h 144.944 l -29.351,30.187 z"
       style="fill:#fedb78;fill-opacity:1;fill-rule:nonzero;stroke:none"
       id="path334" /><g
       id="g432"><g
         id="g434"
         clip-path="url(#clipPath438)"><g
           id="g440"
           transform="translate(65.9312,130.6719)" /><g
           id="g444"
           transform="translate(63.543,107.1289)" /></g></g></g></svg>
